<svg xmlns="http://www.w3.org/2000/svg" viewBox="0 0 503.322 503.322"><path fill="#95a5a5" d="M182.194 408.711h138.847v77.017H182.194z"/><path d="M166.617.195H34.712C15.534.195 0 15.121 0 43.195v338.441c0 8.548 15.534 23.474 34.712 23.474H468.61c19.178 0 34.712-14.926 34.712-23.474V43.195c0-28.073-15.534-42.999-34.712-42.999H166.617z" fill="#3f5c6c"/><g fill="#bdc3c7"><path d="M138.847 468.415h225.627c14.378 0 26.034 11.656 26.034 26.034v8.678H112.814v-8.678c0-14.378 11.655-26.034 26.033-26.034zM503.322 365.364v27.509c-.43 18.754-15.957 33.621-34.712 33.237H34.712C15.957 426.495.43 411.627 0 392.873v-27.509h503.322z"/></g><path d="M346.612 69.228h45.932c18.28.912 32.386 16.428 31.557 34.712v86.78c.829 18.284-13.276 33.8-31.556 34.712H108.538c-18.28-.912-32.385-16.428-31.556-34.712v-86.78c-.829-18.284 13.276-33.8 31.556-34.712h238.074z" fill="#d25627"/><g fill="#ecf0f1"><path d="M198.475 156.008h-8.678v-8.678c0-4.793-3.885-8.678-8.678-8.678-4.793 0-8.678 3.885-8.678 8.678v8.678h-19.754l27.288-47.763c2.366-4.16.917-9.449-3.238-11.823-4.155-2.374-9.447-.937-11.83 3.213l-34.712 60.746c-1.537 2.685-1.527 5.986.026 8.662 1.553 2.676 4.414 4.323 7.508 4.321h34.712v17.356c0 4.793 3.885 8.678 8.678 8.678 4.793 0 8.678-3.885 8.678-8.678v-17.356h8.678c4.793 0 8.678-3.885 8.678-8.678 0-4.793-3.886-8.678-8.678-8.678zM363.356 156.008h-8.678v-8.678c0-4.793-3.885-8.678-8.678-8.678s-8.678 3.885-8.678 8.678v8.678h-19.754l27.288-47.763c2.366-4.16.917-9.449-3.238-11.823-4.155-2.374-9.447-.937-11.83 3.213l-34.712 60.746c-1.537 2.685-1.527 5.986.026 8.662 1.553 2.676 4.414 4.323 7.508 4.321h34.712v17.356c0 4.793 3.885 8.678 8.678 8.678s8.678-3.885 8.678-8.678v-17.356h8.678c4.793 0 8.678-3.885 8.678-8.678 0-4.793-3.885-8.678-8.678-8.678zM259.22 95.262h-17.356c-14.372.016-26.018 11.662-26.034 26.034v52.068c.016 14.372 11.662 26.018 26.034 26.034h17.356c14.372-.016 26.018-11.662 26.034-26.034v-52.068c-.015-14.371-11.662-26.018-26.034-26.034zm8.678 78.102c-.005 4.791-3.887 8.673-8.678 8.678h-17.356c-4.791-.005-8.673-3.887-8.678-8.678v-52.068c.005-4.791 3.887-8.673 8.678-8.678h17.356c4.791.005 8.673 3.887 8.678 8.678v52.068z"/></g><path d="M137.763 268.822l-34.712 52.068h-8.678c-9.574-.028-17.328-7.782-17.356-17.356v-17.356c.028-9.574 7.782-17.328 17.356-17.356h43.39z" fill="#d25627"/><g fill="#e57e25"><path d="M424.136 286.178v17.356c-.028 9.574-7.782 17.328-17.356 17.356h-43.39l34.712-52.068h8.678c9.573.028 17.328 7.782 17.356 17.356zM181.153 268.822l-34.712 52.067h-43.39l34.712-52.067z"/></g><path fill="#d25627" d="M224.542 268.822l-34.711 52.067h-43.39l34.712-52.067z"/><path fill="#e57e25" d="M267.932 268.822l-34.712 52.067h-43.389l34.711-52.067z"/><path fill="#d25627" d="M311.322 268.822l-34.712 52.067h-43.39l34.712-52.067z"/><path fill="#e57e25" d="M354.712 268.822L320 320.889h-43.39l34.712-52.067z"/><path fill="#d25627" d="M398.102 268.822l-34.712 52.067H320l34.712-52.067z"/></svg>