<svg width="66" height="52" viewBox="0 0 66 52" fill="none" xmlns="http://www.w3.org/2000/svg"><path d="M31.424 47.273c-.197 0-.295 0-.492-.099L11.723 36.045c-.296-.197-.493-.492-.493-.886V13c0-.394.197-.69.493-.886.197-.099.295-.099.492-.099.198 0 .296 0 .493.099l19.209 11.128c.296.197.493.493.493.887v22.159c0 .394-.197.69-.493.886-.197.099-.296.099-.493.099Z" fill="#fff"/><path d="M12.215 13c6.403 3.742 12.806 7.386 19.21 11.129v22.159l-19.21-11.03V13Zm0-1.97c-.295 0-.69.099-.985.296-.59.394-.985.985-.985 1.674v22.16c0 .689.394 1.378.985 1.673l19.21 11.03c.295.198.689.296.984.296a1.9 1.9 0 0 0 .985-.295c.591-.394.985-.985.985-1.675V24.13c0-.69-.394-1.379-.985-1.675l-7.683-4.431L13.2 11.326a1.901 1.901 0 0 0-.985-.296Z" fill="url(#a)"/><path d="M31.424 47.273c-.197 0-.295 0-.492-.099-.295-.197-.492-.492-.492-.886v-22.16c0-.393.197-.689.492-.886l19.209-11.128c.197-.099.296-.099.492-.099.197 0 .296 0 .493.099.296.197.493.492.493.886v22.16c0 .393-.197.689-.493.885l-19.209 11.13c-.197.098-.296.098-.493.098Z" fill="#fff"/><path d="M50.633 13v22.16c-6.403 3.742-12.806 7.385-19.209 11.03V24.03c6.403-3.545 12.806-7.288 19.21-11.03Zm0-1.97c-.295 0-.69.099-.985.296l-11.525 6.697-7.684 4.431c-.59.395-.985.985-.985 1.675v22.159c0 .69.394 1.379.985 1.674a1.9 1.9 0 0 0 .985.295 1.9 1.9 0 0 0 .985-.295l19.21-11.03c.59-.394.984-.985.984-1.675V13.1c0-.69-.394-1.38-.985-1.675a1.412 1.412 0 0 0-.985-.394Z" fill="url(#b)"/><path d="M31.424 25.114c-.197 0-.295 0-.492-.099L11.723 13.886c-.296-.197-.493-.492-.493-.886s.197-.69.493-.886l19.209-11.03c.099-.1.296-.1.492-.1.198 0 .296 0 .493.1l19.209 11.03c.296.197.492.492.492.886s-.197.69-.492.886l-19.209 11.13c-.197.098-.296.098-.493.098Z" fill="#fff"/><path d="M31.424 1.97 50.634 13l-19.21 11.129L12.215 13l19.21-11.03Zm0-1.97a1.9 1.9 0 0 0-.985.295L11.23 11.325c-.59.395-.985.986-.985 1.675 0 .69.394 1.379.985 1.674l19.21 11.03c.295.197.689.296.984.296a1.9 1.9 0 0 0 .985-.296l19.21-10.931c.59-.394.984-.985.984-1.675 0-.689-.394-1.378-.985-1.674L32.41.295A1.901 1.901 0 0 0 31.424 0Z" fill="url(#c)"/><path d="M51.52 50.917c-.197 0-.296 0-.493-.099l-12.51-7.19c-.296-.196-.493-.492-.493-.886V28.364c0-.394.197-.69.493-.887.197-.098.295-.098.492-.098s.296 0 .493.098l12.51 7.19c.296.197.493.492.493.886v14.379c0 .394-.197.69-.492.886-.099 0-.296.099-.493.099Z" fill="#fff"/><path d="M39.108 28.265c4.137 2.364 8.275 4.826 12.51 7.19v14.378l-12.51-7.189V28.265Zm0-1.97c-.296 0-.69.099-.985.296-.591.394-.985.985-.985 1.674v14.379c0 .69.394 1.379.985 1.674l12.51 7.19a1.9 1.9 0 0 0 .985.295c.296 0 .69-.098.985-.295.591-.394.985-.985.985-1.675V35.455c0-.69-.394-1.38-.985-1.675L46.3 30.136l-6.206-3.545a1.901 1.901 0 0 0-.985-.296Z" fill="url(#d)"/><path d="M51.52 50.917c-.197 0-.295 0-.492-.099-.296-.197-.493-.492-.493-.886V35.455c0-.394.197-.69.493-.887l12.51-7.19c.197-.098.296-.098.493-.098s.295 0 .492.099c.296.197.493.492.493.886v14.379c0 .394-.197.69-.493.886l-12.51 7.19a.753.753 0 0 1-.493.197Z" fill="#fff"/><path d="M64.03 28.265v14.379c-4.137 2.364-8.274 4.826-12.51 7.19v-14.38c4.236-2.363 8.373-4.825 12.51-7.189Zm0-1.97c-.295 0-.689.099-.985.296l-6.206 3.644-6.206 3.644c-.59.394-.985.985-.985 1.674v14.379c0 .69.394 1.379.985 1.674.296.197.69.295.986.295a1.9 1.9 0 0 0 .985-.295l12.412-7.19c.59-.393.985-.984.985-1.674V28.363c0-.689-.394-1.378-.985-1.674-.296-.295-.591-.393-.986-.393Z" fill="url(#e)"/><path d="M51.52 36.44c-.197 0-.296 0-.493-.1l-12.51-7.188c-.296-.197-.493-.493-.493-.887s.197-.69.493-.886l12.51-7.19c.197-.098.296-.098.493-.098s.295 0 .492.098l12.51 7.19c.296.197.493.492.493.886s-.197.69-.492.887l-12.51 7.189c-.099.098-.296.098-.493.098Z" fill="#fff"/><path d="m51.52 21.076 12.51 7.19-12.51 7.189-12.51-7.19 12.51-7.19Zm0-1.97c-.296 0-.69.099-.985.295l-12.412 7.19c-.591.394-.985.985-.985 1.674 0 .69.394 1.379.985 1.674l12.51 7.19a1.9 1.9 0 0 0 .985.295c.296 0 .69-.098.985-.295l12.412-7.19c.591-.393.985-.984.985-1.674s-.394-1.379-.985-1.674l-12.51-7.19a1.665 1.665 0 0 0-.985-.295Z" fill="url(#f)"/><path d="M11.427 51.015c-.197 0-.295 0-.492-.098L1.576 45.5c-.394-.295-.59-.59-.59-.886V33.78c0-.394.196-.69.492-.886.197-.099.295-.099.492-.099s.296 0 .493.099l9.457 5.417c.295.197.492.492.492.886V50.03c0 .394-.197.69-.492.887-.197 0-.394.098-.493.098Z" fill="#fff"/><path d="M1.97 33.682c3.152 1.773 6.305 3.644 9.457 5.416v10.834L1.97 44.515V33.682Zm0-1.97a1.9 1.9 0 0 0-.985.296c-.591.394-.985.984-.985 1.674v10.833c0 .788.394 1.379.985 1.773l9.358 5.417a1.9 1.9 0 0 0 .985.295 1.9 1.9 0 0 0 .985-.295c.591-.394.986-.985.986-1.675V39.197c0-.69-.394-1.379-.986-1.674l-2.462-1.576-6.896-3.94a1.9 1.9 0 0 0-.985-.295Z" fill="url(#g)"/><path d="M11.428 51.015c-.198 0-.296 0-.493-.098-.296-.197-.493-.493-.493-.887V39.197c0-.394.197-.69.493-.886l9.457-5.417c.197-.099.295-.099.492-.099s.296 0 .493.099c.295.197.492.492.492.886v10.834c0 .394-.197.69-.492.886l-9.358 5.417c-.296 0-.493.098-.591.098Z" fill="#fff"/><path d="M20.785 33.682v10.833c-3.152 1.773-6.304 3.644-9.358 5.417V39.098c3.054-1.772 6.206-3.545 9.358-5.416Zm0-1.97a1.9 1.9 0 0 0-.985.296l-5.91 3.447-3.448 1.97c-.59.393-.985.984-.985 1.674v10.833c0 .69.394 1.379.985 1.674a1.9 1.9 0 0 0 .985.295c.296 0 .69-.098.985-.295l3.94-2.265 5.517-3.152c.591-.394.985-.984.985-1.674V33.682c0-.69-.394-1.379-.985-1.674-.394-.197-.69-.296-1.084-.296Z" fill="url(#h)"/><path d="M11.427 40.083c-.197 0-.295 0-.492-.098l-9.457-5.417c-.296-.197-.493-.492-.493-.886s.197-.69.493-.887l9.457-5.416c.197-.099.295-.099.492-.099s.296 0 .493.099l9.456 5.416c.296.197.493.493.493.887s-.197.69-.493.886l-9.456 5.417c-.197.098-.394.098-.493.098Z" fill="#fff"/><path d="m11.427 28.265 9.457 5.417-9.457 5.416-9.457-5.416 9.457-5.417Zm0-1.97c-.296 0-.69.099-.985.296L.985 32.008C.394 32.4 0 32.992 0 33.682s.394 1.379.985 1.674l9.457 5.417a1.9 1.9 0 0 0 .985.295 1.9 1.9 0 0 0 .985-.295l9.457-5.417c.59-.394.985-.985.985-1.674 0-.69-.394-1.379-.985-1.674l-9.457-5.417c-.394-.197-.69-.296-.985-.296Z" fill="url(#i)"/><defs><linearGradient id="a" x1="10.245" y1="29.595" x2="33.394" y2="29.595" gradientUnits="userSpaceOnUse"><stop stop-color="#5AE2E2"/><stop offset="1" stop-color="#9F85EC"/></linearGradient><linearGradient id="b" x1="29.454" y1="29.644" x2="52.603" y2="29.644" gradientUnits="userSpaceOnUse"><stop stop-color="#5AE2E2"/><stop offset="1" stop-color="#9F85EC"/></linearGradient><linearGradient id="c" x1="10.245" y1="13" x2="52.603" y2="13" gradientUnits="userSpaceOnUse"><stop stop-color="#5AE2E2"/><stop offset="1" stop-color="#9F85EC"/></linearGradient><linearGradient id="d" x1="37.138" y1="39.049" x2="53.588" y2="39.049" gradientUnits="userSpaceOnUse"><stop stop-color="#5AE2E2"/><stop offset="1" stop-color="#9F85EC"/></linearGradient><linearGradient id="e" x1="49.648" y1="39.099" x2="66.001" y2="39.099" gradientUnits="userSpaceOnUse"><stop stop-color="#5AE2E2"/><stop offset="1" stop-color="#9F85EC"/></linearGradient><linearGradient id="f" x1="37.138" y1="28.265" x2="66" y2="28.265" gradientUnits="userSpaceOnUse"><stop stop-color="#5AE2E2"/><stop offset="1" stop-color="#9F85EC"/></linearGradient><linearGradient id="g" x1="0" y1="41.856" x2="13.299" y2="41.856" gradientUnits="userSpaceOnUse"><stop stop-color="#5AE2E2"/><stop offset="1" stop-color="#9F85EC"/></linearGradient><linearGradient id="h" x1="9.457" y1="41.807" x2="22.854" y2="41.807" gradientUnits="userSpaceOnUse"><stop stop-color="#5AE2E2"/><stop offset="1" stop-color="#9F85EC"/></linearGradient><linearGradient id="i" x1="0" y1="33.682" x2="22.854" y2="33.682" gradientUnits="userSpaceOnUse"><stop stop-color="#5AE2E2"/><stop offset="1" stop-color="#9F85EC"/></linearGradient></defs></svg>