<svg version="1.1" id="레이어_1" xmlns="http://www.w3.org/2000/svg" x="0" y="0" viewBox="0 0 500 500" xml:space="preserve"><style>.st0{fill:#dc5354}</style><path class="st0" d="M58.02 100.98h70.58c18.64 0 33.75 16.17 33.75 36.12v75.51c0 19.95-15.11 36.11-33.75 36.11H58.02c-18.64 0-33.76-16.17-33.76-36.11V137.1c0-19.95 15.11-36.12 33.76-36.12zM58.02 274.99h70.58c18.64 0 33.75 16.17 33.75 36.11v75.52c0 19.95-15.11 36.11-33.75 36.11H58.02c-18.64 0-33.76-16.17-33.76-36.11V311.1c0-19.94 15.11-36.11 33.76-36.11zM217.59 100.98h73.65c18.64 0 33.75 16.17 33.75 36.12v75.51c0 19.95-15.11 36.11-33.75 36.11h-73.65c-18.64 0-33.76-16.17-33.76-36.11V137.1c0-19.95 15.12-36.12 33.76-36.12zM380.24 100.98h70.58c18.65 0 33.76 16.17 33.76 36.12v75.51c0 19.95-15.11 36.11-33.76 36.11h-70.58c-18.64 0-33.76-16.17-33.76-36.11V137.1c0-19.95 15.11-36.12 33.76-36.12zM217.59 274.99h73.65c18.64 0 33.75 16.17 33.75 36.11v75.52c0 19.95-15.11 36.11-33.75 36.11h-73.65c-18.64 0-33.76-16.17-33.76-36.11V311.1c0-19.94 15.12-36.11 33.76-36.11zM380.24 274.99h70.58c18.65 0 33.76 16.17 33.76 36.11v75.52c0 19.95-15.11 36.11-33.76 36.11h-70.58c-18.64 0-33.76-16.17-33.76-36.11V311.1c0-19.94 15.11-36.11 33.76-36.11z"/></svg>