<svg  viewBox="0 0 20 20" fill="none" xmlns="http://www.w3.org/2000/svg"><path d="M10 19.447A9.447 9.447 0 1 0 10 .552a9.447 9.447 0 0 0 0 18.895Z" fill="#F66" stroke="#BDBDBD"/><path d="M15.815 7.584H13.58c-.09 0-.18.09-.18.18v.983H6.6v-.984c0-.09-.089-.179-.178-.179H4.184c-.09 0-.18.09-.18.18v7.604c0 .09.09.18.18.18H6.42c.09 0 .179-.09.179-.18 0-1.879 1.52-3.4 3.4-3.4 1.879 0 3.4 1.521 3.4 3.4 0 .09.09.18.179.18h2.236c.09 0 .18-.09.18-.18V7.763c.089-.09-.09-.179-.18-.179ZM14.742 5.168H5.168v.716h9.574v-.716Z" fill="#fff"/><path d="M5.347 6.6a1.074 1.074 0 1 0 0-2.147 1.074 1.074 0 0 0 0 2.147ZM14.742 6.6a1.074 1.074 0 1 0 0-2.147 1.074 1.074 0 0 0 0 2.147ZM10 6.6a1.074 1.074 0 1 0 0-2.147A1.074 1.074 0 0 0 10 6.6Z" fill="#fff"/></svg>