<svg width="18" height="18" viewBox="0 0 18 18" fill="none" xmlns="http://www.w3.org/2000/svg"><path d="M9 17.5a8.5 8.5 0 1 0 0-17 8.5 8.5 0 0 0 0 17Z" fill="#BDBDBD" stroke="#E0E0E0"/><path d="M9.1 13.2c-1.1 0-2.2-.4-3-1.2-.8-.8-1.2-1.9-1.2-3s.4-2.2 1.2-3c.9-.8 1.9-1.2 3-1.2s2.2.4 3 1.2c.3.3.3.8 0 1.1-.3.3-.8.3-1.1 0-1-1-2.8-1-3.9 0-.4.5-.7 1.2-.7 1.9s.3 1.4.8 1.9c1 1 2.8 1 3.9 0 .3-.3.8-.3 1.1 0 .3.3.3.8 0 1.1-.9.8-1.9 1.2-3.1 1.2Z" fill="#fff"/><path d="M9 2.7c3.5 0 6.3 2.8 6.3 6.3s-2.8 6.3-6.3 6.3S2.7 12.5 2.7 9 5.5 2.7 9 2.7Zm0-.5c-3.8 0-6.8 3-6.8 6.8s3.1 6.8 6.8 6.8c3.7 0 6.8-3.1 6.8-6.8 0-3.8-3-6.8-6.8-6.8Z" fill="#fff"/></svg>