<svg  viewBox="0 0 49 58" fill="none" xmlns="http://www.w3.org/2000/svg"><path d="M47.664 38.356c-2.637-1.978-4.945-3.187-6.484-3.846-15.496-7.144-30.663-.99-32.312-.22-1.099.44-1.868.88-2.418 1.1a89.946 89.946 0 0 0-4.506 2.417c0 2.088.11 4.286.11 6.374.22 3.188 2.418 6.375 6.594 8.793 8.903 5.275 23.41 5.385 32.312.22 4.616-2.638 6.924-6.155 6.704-9.672v-5.166Z" fill="#fff" stroke="url(#a)" stroke-width="2" stroke-miterlimit="10" stroke-linecap="round" stroke-linejoin="round"/><path d="M47.755 37.863C47.813 30.58 37.625 24.594 25 24.494c-12.625-.1-22.906 5.724-22.964 13.008-.058 7.284 10.13 13.27 22.756 13.37 12.625.099 22.906-5.725 22.964-13.009Z" fill="#fff" stroke="url(#b)" stroke-width="2" stroke-miterlimit="10" stroke-linecap="round" stroke-linejoin="round"/><path d="M32.388 35.719c-1.099 1.319-2.747 2.088-4.726 2.528-.11 0-.22.11-.22.22l.11 2.088c0 .11 0 .33-.11.44-.11.11-.22.11-.44.11h-4.725c-.11 0-.33 0-.44-.11-.11-.11-.11-.22-.11-.44l.11-2.199c0-.11 0-.22-.11-.22-1.978-.439-3.517-1.428-4.616-2.747-1.099-1.319-1.648-2.967-1.648-4.836v-.44c0-.11 0-.329.11-.439.11-.11.22-.11.44-.11h5.165c.11 0 .33 0 .44.11.11.11.11.22.11.44v.22c0 .659.33 1.209.989 1.758.659.55 1.538.77 2.637.77.88 0 1.429-.22 1.759-.55.33-.33.55-.77.55-1.21 0-.549-.22-.878-.66-1.208-.44-.33-1.319-.55-2.418-.88l-.99-.329c-2.197-.66-4.066-1.649-5.604-2.857-1.539-1.21-2.308-2.858-2.308-5.056 0-1.759.55-3.297 1.648-4.506 1.1-1.21 2.528-2.088 4.396-2.638.11 0 .11-.11.11-.22l-.11-2.527c0-.11 0-.33.11-.44.11-.11.22-.11.44-.11h4.726c.11 0 .33 0 .44.11.11.11.11.22.11.44l-.11 2.637c0 .11 0 .11.11.22 1.868.55 3.406 1.429 4.615 2.858 1.21 1.428 1.759 3.077 1.759 4.945v.33c0 .11 0 .33-.11.44-.11.11-.22.11-.44.11h-5.165c-.11 0-.33 0-.44-.11-.11-.11-.11-.22-.11-.44 0-.66-.33-1.319-.879-1.868a3.62 3.62 0 0 0-2.418-.88c-.77 0-1.319.11-1.758.44-.44.33-.66.77-.66 1.319 0 .44.11.77.44 1.099.33.33.77.55 1.429.88.659.219 1.648.659 2.967.988.22.11.99.33 2.418.77 1.429.44 2.528 1.209 3.517 2.308.989 1.099 1.429 2.527 1.429 4.066 0 1.758-.66 3.407-1.759 4.726Z" fill="url(#c)"/><path d="M24.805 7.913c-.77 0-1.319-.66-1.319-1.319V1.32c0-.77.66-1.319 1.32-1.319.659 0 1.318.66 1.318 1.319v5.165c.11.77-.55 1.43-1.319 1.43Z" fill="url(#d)"/><path d="M34.146 11.1c-.33 0-.66-.11-.879-.33-.55-.549-.66-1.318-.11-1.978l3.297-3.956c.44-.55 1.32-.66 1.979-.22.55.44.659 1.319.22 1.978l-3.298 3.957c-.44.33-.77.55-1.209.55Z" fill="url(#e)"/><path d="M15.463 11.1c-.44 0-.77-.22-1.1-.44l-3.186-4.066c-.55-.55-.44-1.429.11-1.868a1.41 1.41 0 0 1 1.978.22l3.297 3.956c.44.55.44 1.429-.22 1.979-.22.11-.55.22-.879.22Z" fill="url(#f)"/><defs><linearGradient id="a" x1="1.944" y1="44.047" x2="47.679" y2="44.047" gradientUnits="userSpaceOnUse"><stop stop-color="#5AE2E2"/><stop offset="1" stop-color="#9F85EC"/></linearGradient><linearGradient id="b" x1="24.791" y1="50.871" x2="24.999" y2="24.494" gradientUnits="userSpaceOnUse"><stop stop-color="#5AE2E2"/><stop offset="1" stop-color="#9F85EC"/></linearGradient><linearGradient id="c" x1="15.463" y1="25.718" x2="34.147" y2="25.718" gradientUnits="userSpaceOnUse"><stop stop-color="#5AE2E2"/><stop offset="1" stop-color="#9F85EC"/></linearGradient><linearGradient id="d" x1="23.486" y1="3.957" x2="26.136" y2="3.957" gradientUnits="userSpaceOnUse"><stop stop-color="#5AE2E2"/><stop offset="1" stop-color="#9F85EC"/></linearGradient><linearGradient id="e" x1="32.796" y1="7.722" x2="38.924" y2="7.722" gradientUnits="userSpaceOnUse"><stop stop-color="#5AE2E2"/><stop offset="1" stop-color="#9F85EC"/></linearGradient><linearGradient id="f" x1="10.815" y1="7.76" x2="16.868" y2="7.76" gradientUnits="userSpaceOnUse"><stop stop-color="#5AE2E2"/><stop offset="1" stop-color="#9F85EC"/></linearGradient></defs></svg>