<svg id="Layer_1" data-name="Layer 1" xmlns="http://www.w3.org/2000/svg" viewBox="0 0 286 52"><defs><style>.cls-1,.cls-3{fill:#dc5354}.cls-1{fill-rule:evenodd}</style></defs><path class="cls-1" d="M74 36.1A10.1 10.1 0 1063.9 26 10.1 10.1 0 0074 36.1zM25.1 41.9A15.9 15.9 0 1138.9 18l7.3-4.2a24.4 24.4 0 100 24.4L38.9 34a16 16 0 01-13.8 7.9z"/><path class="cls-1" d="M33.3 31.9c4.6-6.5 15.1-4.4 17.8 2.8a24.4 24.4 0 100-17.4 10.3 10.3 0 01-18 2.6 10.1 10.1 0 10-8 16.2 10.4 10.4 0 008.2-4.2zm40.7 10A15.9 15.9 0 1189.9 26 15.9 15.9 0 0174 41.9z"/><path fill="#1e3b5b" d="M109.9.3h1v51.4h-1z"/><path class="cls-3" d="M154.2 26q0-6.5 3.6-10.2t10.2-3.6q6.6 0 10.2 3.6c2.5 2.3 3.7 5.7 3.7 10a17.2 17.2 0 01-1.6 7.7 12.2 12.2 0 01-4.6 4.7 15 15 0 01-7.4 1.6 18.2 18.2 0 01-7.5-1.4 11.2 11.2 0 01-4.8-4.6 15.5 15.5 0 01-1.8-7.8zm8.2.1c0 2.7.5 4.6 1.5 5.8a5 5 0 004.1 1.7 4.8 4.8 0 004.1-1.7c1-1.1 1.5-3.2 1.5-6.2s-.5-4.4-1.5-5.5a5.2 5.2 0 00-4.2-1.8 5 5 0 00-4 1.8c-1 1.2-1.5 3.1-1.5 5.9zM190.1 12.6h7.7l10.1 14.8V12.6h7.8v26.8h-7.8l-10-14.7v14.7h-7.8zM242.3 12.4h8.2v15.9a13.3 13.3 0 01-.7 4.5 11 11 0 01-2.3 3.7 10.6 10.6 0 01-3.3 2.2 16.8 16.8 0 01-5.8.9l-4.3-.3a10 10 0 01-3.8-1.1 8.9 8.9 0 01-2.9-2.3 9.2 9.2 0 01-1.7-3 17.1 17.1 0 01-.8-4.6V12.4h8.3v16.3a4.3 4.3 0 004.5 4.7 4.2 4.2 0 003.4-1.3 4.5 4.5 0 001.2-3.4zM259.8 12.6h7.7l10.1 14.8V12.6h7.8v26.8h-7.8l-10-14.7v14.7h-7.8z"/><g><path class="cls-3" d="M140.2 28.4a7.9 7.9 0 01-1.8 3.9 4.5 4.5 0 01-3.5 1.3 4.5 4.5 0 01-3.8-1.6c-.9-1.1-1.4-3.2-1.4-6.1a14.5 14.5 0 01.3-3.2h-8.3a16.6 16.6 0 00-.3 3.2 15.3 15.3 0 002 8.2 12.7 12.7 0 004.8 4.5 18.1 18.1 0 007.1 1.2 15.1 15.1 0 006-1 9.5 9.5 0 003.8-3.1 11.9 11.9 0 002.3-5.1zM135.2 18.4a4.2 4.2 0 012.2.5 4.6 4.6 0 011.7 1.4 7.8 7.8 0 01.8 1.8l7.3-1.6a12.3 12.3 0 00-4.3-6.3 14 14 0 00-7.9-2h-1.2v6.3z"/></g></svg>