<svg  viewBox="0 0 215 36" fill="none" xmlns="http://www.w3.org/2000/svg"><path fill-rule="evenodd" clip-rule="evenodd" d="M52.911 24.742c3.985 0 7.29-3.23 7.29-7.24 0-3.959-3.252-7.24-7.29-7.24-3.985.052-7.289 3.281-7.289 7.24 0 4.01 3.304 7.24 7.29 7.24ZM17.62 28.961c-6.346 0-11.485-5.104-11.485-11.407S11.275 6.146 17.62 6.146c4.248 0 7.971 2.292 9.964 5.73l5.296-3.02C29.838 3.541 24.174 0 17.62 0 7.92 0 0 7.865 0 17.502c0 9.688 7.918 17.502 17.62 17.502 6.502 0 12.218-3.542 15.26-8.751l-5.297-3.021c-1.993 3.438-5.663 5.73-9.963 5.73Z" fill="#1D428A"/><path fill-rule="evenodd" clip-rule="evenodd" d="M23.545 21.721c3.356-4.636 10.907-3.125 12.9 2.032 2.517 6.563 8.967 11.25 16.466 11.25 9.754 0 17.62-7.865 17.62-17.501C70.53 7.813 62.611 0 52.91 0 45.36 0 38.91 4.688 36.393 11.303c-2.098 5.47-9.44 6.511-12.953 1.875a7.292 7.292 0 0 0-5.82-2.864c-4.038 0-7.29 3.23-7.29 7.24s3.252 7.24 7.29 7.24c2.464-.052 4.614-1.25 5.925-3.073Zm29.366 7.24c-6.345 0-11.484-5.104-11.484-11.407S46.566 6.146 52.91 6.146s11.484 5.105 11.484 11.408c0 6.303-5.139 11.407-11.484 11.407Z" fill="#1D428A"/><path d="M105.769 17.554c0-3.594.997-6.407 3.042-8.438 2.045-2.032 4.824-3.022 8.442-3.022 3.724 0 6.555.99 8.548 2.97 1.993 1.979 2.989 4.74 2.989 8.282 0 2.604-.42 4.688-1.311 6.355-.891 1.666-2.15 2.916-3.776 3.854-1.678.938-3.723 1.354-6.187 1.354-2.517 0-4.563-.416-6.241-1.198-1.625-.781-2.989-2.031-3.985-3.75-1.049-1.719-1.521-3.855-1.521-6.407Zm6.87 0c0 2.24.419 3.855 1.258 4.792.839.99 1.993 1.459 3.409 1.459 1.468 0 2.622-.47 3.408-1.459.787-.937 1.206-2.656 1.206-5.157 0-2.083-.419-3.594-1.258-4.583-.839-.938-1.993-1.459-3.461-1.459-1.363 0-2.517.469-3.356 1.459-.787 1.093-1.206 2.708-1.206 4.948ZM135.66 6.46h6.45l8.39 12.24V6.46h6.502v22.085H150.5l-8.338-12.137v12.137h-6.45V6.459h-.052ZM179.132 6.46h6.869v13.178c0 1.302-.21 2.552-.629 3.698-.42 1.146-1.049 2.188-1.94 3.021-.892.886-1.783 1.459-2.78 1.823-1.311.469-2.936.73-4.824.73-1.101 0-2.255-.053-3.566-.209-1.258-.156-2.36-.469-3.199-.886a8.922 8.922 0 0 1-2.359-1.927c-.735-.833-1.207-1.667-1.469-2.552-.419-1.406-.629-2.657-.629-3.75V6.458h6.869V19.95c0 1.198.315 2.136.997 2.813.681.677 1.625 1.042 2.779 1.042 1.206 0 2.098-.313 2.779-.99.682-.677.997-1.615.997-2.865V6.46h.105ZM193.709 6.46h6.398l8.39 12.24V6.46H215v22.085h-6.503l-8.338-12.137v12.137h-6.45V6.459ZM94.128 19.532c-.315 1.407-.787 2.449-1.469 3.178-.681.73-1.678 1.094-2.989 1.094-1.363 0-2.412-.47-3.146-1.355s-1.101-2.604-1.101-5.052c0-1.042.105-1.875.262-2.657h-6.922c-.157.834-.21 1.72-.21 2.709 0 2.76.577 5 1.678 6.771 1.102 1.771 2.413 2.97 3.986 3.699 1.52.677 3.513 1.041 5.925 1.041 1.993 0 3.619-.312 4.93-.885 1.31-.573 2.36-1.406 3.25-2.552.892-1.146 1.522-2.553 1.889-4.22l-6.083-1.77ZM89.933 11.2c.681 0 1.31.155 1.888.416.576.26 1.048.677 1.416 1.198.21.312.471.781.681 1.458l6.083-1.354c-.787-2.344-1.993-4.063-3.566-5.209-1.625-1.146-3.828-1.667-6.607-1.667-.315 0-.63 0-.944.052v5.21c.262-.053.63-.105 1.049-.105Z" fill="#1D428A"/></svg>