<svg id="Layer_1" data-name="Layer 1" xmlns="http://www.w3.org/2000/svg" viewBox="0 0 132 66"><defs><style>.cls-1{fill:#dae5ef;fill-rule:evenodd}</style></defs><path class="cls-1" d="M98.816 46.422a13.504 13.504 0 1 0-13.542-13.467 13.525 13.525 0 0 0 13.542 13.467ZM33.279 54.47A21.389 21.389 0 1 1 51.72 22.34l9.85-5.723a32.778 32.778 0 1 0 .083 32.788l-9.88-5.673A21.372 21.372 0 0 1 33.28 54.47Z"/><path class="cls-1" d="M44.213 40.93c6.243-8.722 20.24-5.908 23.975 3.775a32.772 32.772 0 1 0-.1-23.324 13.907 13.907 0 0 1-24.108 3.53 13.507 13.507 0 1 0 .233 16.018Zm54.622 13.377a21.389 21.389 0 1 1 21.332-21.439 21.388 21.388 0 0 1-21.332 21.439Z"/></svg>