<svg width="20" height="20" viewBox="0 0 20 20" fill="none" xmlns="http://www.w3.org/2000/svg"><path d="M10 19.447A9.447 9.447 0 1 0 10 .553a9.447 9.447 0 0 0 0 18.894Z" fill="#5A89E2" stroke="#BDBDBD"/><path d="m14.563 4.542-3.131-1.79v1.343H6.869c-.18 0-.269.09-.358.179L3.379 9.82c-.09.18-.09.269 0 .447L5.17 13.4c.09.09.179.18.357.18.09 0 .18 0 .18-.09.178-.09.268-.358.178-.627L4.274 10l2.863-5.01h4.295v1.342l3.131-1.79Z" fill="#fff"/><path d="M6.869 5.705a1.074 1.074 0 1 0 0-2.147 1.074 1.074 0 0 0 0 2.147ZM3.916 11.074a1.074 1.074 0 1 0 0-2.148 1.074 1.074 0 0 0 0 2.148ZM16.62 9.821l-1.789-3.132c-.09-.268-.358-.357-.626-.178-.179.089-.268.357-.179.626l1.7 2.952-2.863 5.011H8.568v-1.342l-3.131 1.79 3.131 1.789v-1.342h4.563c.18 0 .269-.09.358-.18l3.132-5.457c.09-.269.09-.447 0-.537Z" fill="#fff"/><path d="M13.13 16.442a1.074 1.074 0 1 0 0-2.147 1.074 1.074 0 0 0 0 2.147ZM16.084 11.074a1.074 1.074 0 1 0 0-2.148 1.074 1.074 0 0 0 0 2.148ZM10 11.79c-.984 0-1.79-.806-1.79-1.79S9.016 8.21 10 8.21c.805 0 1.52.537 1.7 1.343h1.431c-.178-1.61-1.52-2.774-3.22-2.774-1.7 0-3.132 1.432-3.132 3.221a3.208 3.208 0 0 0 3.22 3.221c1.611 0 2.954-1.252 3.222-2.774h-1.432c-.268.806-.984 1.343-1.79 1.343Z" fill="#fff"/><path d="M10 10.895a.895.895 0 1 0 0-1.79.895.895 0 0 0 0 1.79Z" fill="#fff"/></svg>