<svg  viewBox="0 0 20 20" fill="none" xmlns="http://www.w3.org/2000/svg"><path d="M10 19.447A9.447 9.447 0 1 0 10 .553a9.447 9.447 0 0 0 0 18.894Z" fill="#9F85EC" stroke="#BDBDBD"/><path d="M14.92 9.016H5.078c-.268 0-.447.179-.447.447v5.548c0 .268.179.447.447.447h9.842c.269 0 .448-.179.448-.447V9.463c0-.268-.18-.447-.448-.447Z" fill="#fff"/><path d="M13.31 6.51h-.716v3.132h.716V6.51Z" fill="#fff"/><path d="M12.952 7.405a1.074 1.074 0 1 0 0-2.147 1.074 1.074 0 0 0 0 2.147ZM9.642 4.095v2.773H7.495v.716h2.147v2.058h.716V4.095h-.716Z" fill="#fff"/><path d="M10 5.347A1.074 1.074 0 1 0 10 3.2a1.074 1.074 0 0 0 0 2.147ZM7.137 8.3a1.074 1.074 0 1 0 0-2.147 1.074 1.074 0 0 0 0 2.147Z" fill="#fff"/></svg>