<svg width="18" height="18" viewBox="0 0 18 18" fill="none" xmlns="http://www.w3.org/2000/svg"><path d="M9 17.5a8.5 8.5 0 1 0 0-17 8.5 8.5 0 0 0 0 17Z" fill="#BDBDBD" stroke="#E0E0E0"/><path d="M9 14.5c-.2 0-.4-.1-.5-.2-1-1.2-1.9-2.1-2.6-2.9C4.2 9.6 3 8.5 3.6 6.6 4 5.3 5.1 4.4 6.4 4.4c1 0 1.9.5 2.5 1.3.6-.8 1.5-1.3 2.5-1.3 1.3 0 2.4.9 2.8 2.2.6 1.9-.5 3.1-2.2 4.8-.7.8-1.7 1.7-2.6 2.9 0 .1-.2.2-.4.2ZM6.5 5.6c-.8 0-1.4.5-1.7 1.3-.3 1.2.2 1.9 2 3.6.6.7 1.4 1.5 2.2 2.4.8-1 1.6-1.8 2.2-2.4 1.7-1.8 2.3-2.4 1.9-3.6-.3-.8-.9-1.3-1.7-1.3-.9 0-1.6.6-1.9 1.6-.2.5-1 .5-1.2 0-.2-1-.9-1.6-1.8-1.6Z" fill="#fff"/></svg>