<svg width="158" height="26" viewBox="0 0 158 26" fill="none" xmlns="http://www.w3.org/2000/svg"><path fill-rule="evenodd" clip-rule="evenodd" d="M38.883 18.183c2.93 0 5.357-2.374 5.357-5.321 0-2.91-2.39-5.321-5.357-5.321-2.928.038-5.356 2.411-5.356 5.32 0 2.948 2.428 5.322 5.356 5.322ZM12.948 21.283c-4.663 0-8.44-3.751-8.44-8.383s3.777-8.383 8.44-8.383a8.448 8.448 0 0 1 7.322 4.21l3.892-2.22C21.927 2.603 17.765 0 12.948 0 5.82 0 0 5.78 0 12.862c0 7.12 5.819 12.862 12.948 12.862 4.779 0 8.98-2.603 11.214-6.431l-3.892-2.22a8.401 8.401 0 0 1-7.322 4.21Z" fill="#fff"/><path fill-rule="evenodd" clip-rule="evenodd" d="M17.303 15.962c2.466-3.406 8.016-2.296 9.48 1.493 1.85 4.824 6.59 8.269 12.1 8.269 7.168 0 12.949-5.78 12.949-12.862C51.832 5.742 46.012 0 38.883 0c-5.549 0-10.289 3.445-12.139 8.307-1.541 4.019-6.936 4.784-9.518 1.378a5.359 5.359 0 0 0-4.278-2.106c-2.967 0-5.356 2.374-5.356 5.321 0 2.948 2.39 5.32 5.356 5.32 1.812-.037 3.392-.918 4.355-2.258Zm21.58 5.321c-4.663 0-8.439-3.751-8.439-8.383s3.777-8.383 8.44-8.383c4.662 0 8.439 3.751 8.439 8.383s-3.777 8.383-8.44 8.383Z" fill="#fff"/><path d="M77.728 12.9c0-2.641.733-4.708 2.235-6.2 1.503-1.494 3.546-2.221 6.205-2.221 2.736 0 4.817.727 6.281 2.182 1.465 1.454 2.197 3.483 2.197 6.086 0 1.914-.308 3.445-.964 4.67-.655 1.225-1.58 2.144-2.774 2.833-1.233.689-2.736.995-4.547.995-1.85 0-3.353-.306-4.586-.88-1.195-.574-2.197-1.493-2.93-2.756-.77-1.264-1.117-2.833-1.117-4.709Zm5.049 0c0 1.646.308 2.833.924 3.522.617.727 1.465 1.072 2.505 1.072 1.08 0 1.927-.345 2.505-1.072.578-.689.886-1.952.886-3.79 0-1.53-.308-2.64-.924-3.368-.617-.69-1.465-1.072-2.544-1.072-1.002 0-1.85.344-2.466 1.072-.578.804-.886 1.99-.886 3.636ZM99.694 4.747h4.74l6.166 8.995V4.747h4.779v16.23H110.6l-6.127-8.919v8.92h-4.74V4.746h-.039ZM131.641 4.747h5.048v9.684c0 .957-.154 1.876-.462 2.718-.308.842-.771 1.608-1.426 2.22-.655.651-1.31 1.072-2.042 1.34-.964.345-2.158.536-3.546.536-.809 0-1.657-.038-2.62-.153-.925-.115-1.734-.345-2.351-.65a6.577 6.577 0 0 1-1.734-1.417c-.539-.613-.886-1.225-1.079-1.876-.308-1.033-.462-1.952-.462-2.756V4.747h5.048v9.914c0 .88.231 1.57.732 2.067.501.498 1.195.766 2.042.766.887 0 1.542-.23 2.043-.728.501-.497.732-1.186.732-2.105V4.747h.077ZM142.354 4.747h4.701l6.166 8.995V4.747H158v16.23h-4.779l-6.127-8.919v8.92h-4.74V4.746ZM69.173 14.354c-.231 1.034-.578 1.8-1.079 2.335-.5.536-1.233.804-2.197.804-1.001 0-1.772-.345-2.312-.995-.54-.651-.809-1.914-.809-3.713 0-.766.077-1.378.193-1.953h-5.087c-.116.613-.154 1.264-.154 1.99 0 2.03.424 3.676 1.233 4.977.81 1.302 1.773 2.182 2.929 2.718 1.117.498 2.582.766 4.354.766 1.465 0 2.66-.23 3.623-.651.963-.421 1.734-1.034 2.39-1.876.654-.842 1.117-1.875 1.386-3.1l-4.47-1.302ZM66.09 8.23c.501 0 .964.115 1.388.306.424.192.77.498 1.04.88.154.23.347.575.501 1.072l4.47-.995c-.578-1.722-1.464-2.986-2.62-3.828-1.195-.842-2.813-1.225-4.856-1.225-.231 0-.462 0-.693.039v3.828a4 4 0 0 1 .77-.077Z" fill="#fff"/></svg>