<svg width="51" height="54" viewBox="0 0 51 54" fill="none" xmlns="http://www.w3.org/2000/svg"><g clip-path="url(#a)"><path d="M1.3 52.3c3.6-6 7.2-12 10.7-17.9 1.6.5 3.1.9 4.7 1.4 3.8-5 7.5-10 11.3-15 2.2.3 4.5.7 6.7 1 3.9-5.5 7.9-11.1 11.8-16.6.5 2.6.9 5.2 1.4 7.8 0 13.1 0 26.3-.1 39.4-15.5-.1-31-.1-46.5-.1Z" fill="#fff"/><path d="M49.1 16.3 47.5 3.8 35.2 6.3l.4 2.1 8-1.7L34 20.1l-6.7-1L16.1 34l-4.8-1.4L0 51.5l2.6 1.6 10.1-17 4.6 1.4 11.3-15.1 6.8 1L46 8.5l1.1 8.1 2-.3Z" fill="url(#b)"/><path d="M41.6 48.9c-.8.9-2 1.5-3.4 1.8-.1 0-.1.1-.1.2l.1 1.5c0 .1 0 .2-.1.3-.1.1-.2.1-.3.1h-3.4c-.1 0-.2 0-.3-.1-.1-.1-.1-.2-.1-.3l.1-1.6c0-.1 0-.1-.1-.2-1.4-.4-2.5-1-3.3-2-.8-1-1.2-2.1-1.2-3.5v-.4c0-.1 0-.2.1-.3.1-.1.2-.1.3-.1h3.8c.1 0 .2 0 .3.1.1.1.1.2.1.3v.3c0 .5.2.9.7 1.3.5.4 1.1.5 1.9.5.6 0 1.1-.1 1.3-.4.3-.3.4-.6.4-.9 0-.4-.2-.7-.5-.8-.3-.2-.9-.4-1.8-.7l-.7-.2c-1.6-.5-2.9-1.2-4-2-1.1-.9-1.6-2.1-1.6-3.7 0-1.3.4-2.4 1.2-3.3.8-.9 1.8-1.5 3.2-1.9.1 0 .1-.1.1-.2l-.1-1.8c0-.1 0-.2.1-.3.1-.1.2-.1.3-.1H38c.1 0 .2 0 .3.1.1.1.1.2.1.3l-.1 1.9c0 .1 0 .1.1.1 1.4.4 2.5 1.1 3.3 2.1.8 1 1.3 2.2 1.3 3.6v.2c0 .1 0 .2-.1.3-.1.1-.2.1-.3.1h-3.8c-.1 0-.2 0-.3-.1-.1-.1-.1-.2-.1-.3 0-.5-.2-1-.7-1.4-.4-.4-1-.6-1.8-.6-.5 0-.9.1-1.3.3-.3.2-.5.5-.5.9 0 .3.1.6.3.8.2.2.6.4 1 .6.5.2 1.2.4 2.1.8.1.1.7.2 1.7.6 1 .3 1.9.9 2.6 1.7.7.8 1 1.8 1 3 .1 1.3-.4 2.5-1.2 3.4Z" fill="url(#c)"/><path d="M42.7 31.8c-.3 0-.5-.1-.7-.3-.4-.4-.4-1 0-1.4l2.6-2.6c.4-.4 1-.4 1.4 0 .4.4.4 1 0 1.4l-2.6 2.6c-.2.2-.4.3-.7.3Z" fill="url(#d)"/><path d="M45.9 36.2c-.5 0-.9-.4-1-.9 0-.6.4-1 .9-1.1l3.7-.3c.5 0 1 .4 1.1.9 0 .6-.4 1-.9 1.1l-3.8.3Z" fill="url(#e)"/><path d="M38.3 28.6s-.1 0 0 0c-.6-.1-1-.5-1-1.1l.3-3.7c0-.5.5-1 1.1-.9.6 0 1 .5.9 1.1l-.3 3.7c0 .5-.5.9-1 .9Z" fill="url(#f)"/><path d="M16.5 31.4c8.395 0 15.2-6.805 15.2-15.2S24.895 1 16.5 1 1.3 7.805 1.3 16.2s6.805 15.2 15.2 15.2Z" fill="#fff"/><path d="M16.5 0C7.5 0 .3 7.3.3 16.2c0 8.9 7.3 16.2 16.2 16.2 8.9 0 16.2-7.3 16.2-16.2C32.6 7.3 25.4 0 16.5 0Zm13.6 20.2c-1.1.7-2.6 1.5-4.4 2.2.4-1.6.6-3.3.7-5.2h4.3l-.6 3Zm-27.8-3h4.3c.1 1.9.3 3.6.7 5.2-1.9-.7-3.4-1.5-4.4-2.2-.3-1-.5-2-.6-3Zm.6-5c1.1-.7 2.6-1.5 4.4-2.2-.4 1.6-.6 3.3-.7 5.2H2.3c.1-1 .3-2 .6-3Zm14.6-3.9c2.2.1 4.1.4 5.9.9.5 1.8.8 3.7.9 5.9h-6.8V8.3Zm0-2V2.1c1 .1 2 .2 3 .5.7 1.1 1.5 2.6 2.2 4.4-1.7-.3-3.4-.6-5.2-.7Zm-2 0c-1.9.1-3.6.3-5.2.7.7-1.9 1.5-3.4 2.2-4.4 1-.3 2-.5 3-.5v4.2Zm0 2v6.8H8.6c.1-2.1.5-4.1 1-5.8 1.7-.5 3.7-.9 5.9-1Zm-6.9 8.9h6.8V24c-2.2-.1-4.2-.4-5.9-.9-.4-1.8-.8-3.7-.9-5.9Zm6.9 8.8v4.3c-1-.1-2-.3-3-.5-.7-1.1-1.5-2.6-2.2-4.4 1.6.3 3.3.6 5.2.6Zm2 0c1.9-.1 3.6-.3 5.2-.7-.7 1.8-1.5 3.3-2.2 4.4-1 .3-2 .5-3 .5V26Zm0-2v-6.8h6.8c-.1 2.2-.4 4.2-.9 5.9-1.8.5-3.8.8-5.9.9Zm8.8-8.8c-.1-1.9-.3-3.6-.7-5.2 1.8.7 3.4 1.5 4.4 2.2.3 1 .5 2 .5 3h-4.2Zm2.5-6c-1.1-.5-2.4-1.1-3.8-1.5-.5-1.4-1-2.7-1.6-3.8 2.3 1.2 4.1 3.1 5.4 5.3ZM9.5 3.8C9 4.9 8.4 6.2 8 7.7c-1.5.5-2.7 1-3.8 1.6C5.4 7 7.3 5.1 9.5 3.8ZM4.1 23.1c1.1.5 2.4 1.1 3.8 1.6.5 1.4 1 2.7 1.5 3.8-2.2-1.3-4-3.1-5.3-5.4Zm19.3 5.4c.5-1.1 1.1-2.4 1.5-3.8 1.4-.5 2.7-1 3.8-1.5-1.2 2.2-3 4.1-5.3 5.3Z" fill="url(#g)"/></g><defs><linearGradient id="b" x1="0" y1="28.45" x2="49.1" y2="28.45" gradientUnits="userSpaceOnUse"><stop stop-color="#5AE2E2"/><stop offset="1" stop-color="#9F85EC"/></linearGradient><linearGradient id="c" x1="29.5" y1="41.65" x2="43" y2="41.65" gradientUnits="userSpaceOnUse"><stop stop-color="#5AE2E2"/><stop offset="1" stop-color="#9F85EC"/></linearGradient><linearGradient id="d" x1="41.7" y1="29.5" x2="46.3" y2="29.5" gradientUnits="userSpaceOnUse"><stop stop-color="#5AE2E2"/><stop offset="1" stop-color="#9F85EC"/></linearGradient><linearGradient id="e" x1="44.9" y1="35.05" x2="50.6" y2="35.05" gradientUnits="userSpaceOnUse"><stop stop-color="#5AE2E2"/><stop offset="1" stop-color="#9F85EC"/></linearGradient><linearGradient id="f" x1="37.3" y1="25.744" x2="39.615" y2="25.744" gradientUnits="userSpaceOnUse"><stop stop-color="#5AE2E2"/><stop offset="1" stop-color="#9F85EC"/></linearGradient><linearGradient id="g" x1=".3" y1="16.2" x2="32.7" y2="16.2" gradientUnits="userSpaceOnUse"><stop stop-color="#5AE2E2"/><stop offset="1" stop-color="#9F85EC"/></linearGradient><clipPath id="a"><path fill="#fff" d="M0 0h50.6v53.1H0z"/></clipPath></defs></svg>