<svg  viewBox="0 0 26 26" fill="none" xmlns="http://www.w3.org/2000/svg"><path d="M13 25.5c6.904 0 12.5-5.596 12.5-12.5S19.904.5 13 .5.5 6.096.5 13 6.096 25.5 13 25.5Z" fill="#92CAFF" stroke="#BDBDBD"/><path fill-rule="evenodd" clip-rule="evenodd" d="M7 6.5a.5.5 0 0 0-.5.5v5a.5.5 0 0 0 .5.5h4.5v1H7a.5.5 0 0 0-.5.5v5a.5.5 0 0 0 .5.5h5a.5.5 0 0 0 .5-.5v-4.5H16a.5.5 0 0 0 .5-.5v-1.5H19a.5.5 0 0 0 .5-.5V7a.5.5 0 0 0-.5-.5h-5a.5.5 0 0 0-.5.5v5a.5.5 0 0 0 .5.5h1.5v1h-3V7a.5.5 0 0 0-.5-.5H7Zm4.5 4.5v.5h-4v-4h4V11ZM8.797 8.548h1.5a.25.25 0 0 1 .25.25v1.5a.25.25 0 0 1-.25.25h-1.5a.25.25 0 0 1-.25-.25v-1.5a.25.25 0 0 1 .25-.25ZM7.5 14.5v4h4v-4h-4Zm1.297 1.048h1.5a.25.25 0 0 1 .25.25v1.5a.25.25 0 0 1-.25.25h-1.5a.25.25 0 0 1-.25-.25v-1.5a.25.25 0 0 1 .25-.25ZM14.5 7.5v4h4v-4h-4Zm1.297 1.048h1.5a.25.25 0 0 1 .25.25v1.5a.25.25 0 0 1-.25.25h-1.5a.25.25 0 0 1-.25-.25v-1.5a.25.25 0 0 1 .25-.25Zm1.678 4.702c-.124 0-.225.1-.225.225v1.8c0 .124.1.225.225.225h1.8c.124 0 .225-.1.225-.225v-1.8c0-.124-.1-.225-.225-.225h-1.8ZM13 15.15a.15.15 0 0 1 .15-.15h.95a.15.15 0 0 1 .15.15v.95a.15.15 0 0 1-.15.15h-.95a.15.15 0 0 1-.15-.15v-.95ZM15.15 17a.15.15 0 0 0-.15.15v.7c0 .083.067.15.15.15h.7a.15.15 0 0 0 .15-.15v-.7a.15.15 0 0 0-.15-.15h-.7ZM15 15.15a.15.15 0 0 1 .15-.15h1.2a.15.15 0 0 1 .15.15v1.2a.15.15 0 0 1-.15.15h-1.2a.15.15 0 0 1-.15-.15v-1.2Zm2.5 1.35a.5.5 0 0 0-.5.5v1.5h-2a.5.5 0 0 0 0 1h4a.5.5 0 0 0 0-1h-1v-1h1a.5.5 0 0 0 0-1h-1.5Zm-3.5 1a.5.5 0 0 0-1 0V19a.5.5 0 0 0 1 0v-1.5Z" fill="#fff"/></svg>