<svg width="65" height="52" viewBox="0 0 65 52" fill="none" xmlns="http://www.w3.org/2000/svg"><g clip-path="url(#a)" stroke-width="2" stroke-miterlimit="10" stroke-linecap="round" stroke-linejoin="round"><path d="M35.119 50.831c-11.35-.681-18.142-.584-22.41 0-1.068.098-3.59.487-6.306-.681C3.589 48.98 1.94 46.742.97 45.184V1.558C5.82.974 9.798.974 12.514.974c5.24.195 7.859.779 13.583.876 3.783 0 6.985-.195 8.925-.39.097 16.458.097 32.914.097 49.371Z" fill="#fff" stroke="url(#b)"/><path d="M7.178 45.086a7.319 7.319 0 0 1-1.94.78c-1.94.389-3.59-.293-4.172-.683.485.974 1.747 2.922 4.075 4.285 2.522 1.46 5.045 1.46 6.209 1.46.97 0 1.746-.097 2.328-.194-.873-.195-3.104-.876-4.85-2.921-.97-1.072-1.456-2.045-1.65-2.727Z" fill="#fff" stroke="url(#c)"/><path d="M7.76 12.27c.874-.098 2.426-.195 4.366-.195 4.172-.098 6.5.195 12.03.39 1.262.097 3.299.097 5.821.194" stroke="url(#d)"/><path d="M7.76 21.326c.874-.098 2.426-.195 4.366-.195 4.172-.097 6.5.195 12.03.39 1.262.097 3.299.097 5.821.194" stroke="url(#e)"/><path d="M7.76 30.48c.874-.098 2.426-.195 4.366-.195 4.172-.098 6.5.194 12.03.39 1.262.096 3.299.096 5.821.194" stroke="url(#f)"/><path d="M7.76 39.633c.874-.098 2.426-.195 4.366-.195 4.172-.097 6.5.195 12.03.39 1.262.097 3.299.097 5.821.194" stroke="url(#g)"/><path d="M56.851 18.112c-.29.292-.388.682-.582.974-1.455.195-3.007.78-4.657 1.85-6.5 4.188-11.448 13.828-11.06 21.52.098 2.24.68 3.993 1.553 5.357l-.485.876 3.201 1.558c2.232.974 5.045.584 8.053-1.46 6.596-3.993 11.544-13.73 11.156-21.424-.194-3.992-1.746-6.719-4.171-7.79l-3.008-1.46Z" fill="#fff" stroke="url(#h)"/><path d="M58.078 38.042c4.323-8.411 3.89-17.269-.967-19.784-4.857-2.514-12.298 2.266-16.62 10.678-4.324 8.412-3.89 17.27.966 19.785 4.857 2.514 12.299-2.267 16.621-10.678Z" fill="#fff" stroke="url(#i)"/><path d="M43.753 14.801c-.097 0-.097 0 0 0-.194.293-.388.487-.485.78-1.261.097-2.62.584-4.074 1.46-5.627 3.408-10.187 11.49-10.09 18.015a9.78 9.78 0 0 0 1.164 4.674l-.388.78 2.717 1.363c1.843.876 4.268.584 6.888-.974 5.627-3.409 10.09-11.393 9.992-18.015 0-3.409-1.358-5.745-3.298-6.72l-2.426-1.363Z" fill="#fff" stroke="url(#j)"/><path d="M44.074 31.761c3.921-7.041 3.84-14.58-.183-16.836-4.022-2.256-10.462 1.623-14.383 8.665-3.921 7.041-3.84 14.58.183 16.836 4.022 2.256 10.462-1.623 14.383-8.665Z" fill="#fff" stroke="url(#k)"/></g><defs><linearGradient id="b" x1=".97" y1="25.973" x2="35.119" y2="25.973" gradientUnits="userSpaceOnUse"><stop stop-color="#5AE2E2"/><stop offset="1" stop-color="#9F85EC"/></linearGradient><linearGradient id="c" x1="1.066" y1="48.007" x2="13.678" y2="48.007" gradientUnits="userSpaceOnUse"><stop stop-color="#5AE2E2"/><stop offset="1" stop-color="#9F85EC"/></linearGradient><linearGradient id="d" x1="7.761" y1="12.357" x2="29.977" y2="12.357" gradientUnits="userSpaceOnUse"><stop stop-color="#5AE2E2"/><stop offset="1" stop-color="#9F85EC"/></linearGradient><linearGradient id="e" x1="7.761" y1="21.413" x2="29.977" y2="21.413" gradientUnits="userSpaceOnUse"><stop stop-color="#5AE2E2"/><stop offset="1" stop-color="#9F85EC"/></linearGradient><linearGradient id="f" x1="7.761" y1="30.567" x2="29.977" y2="30.567" gradientUnits="userSpaceOnUse"><stop stop-color="#5AE2E2"/><stop offset="1" stop-color="#9F85EC"/></linearGradient><linearGradient id="g" x1="7.761" y1="39.721" x2="29.977" y2="39.721" gradientUnits="userSpaceOnUse"><stop stop-color="#5AE2E2"/><stop offset="1" stop-color="#9F85EC"/></linearGradient><linearGradient id="h" x1="40.531" y1="34.434" x2="64.052" y2="34.434" gradientUnits="userSpaceOnUse"><stop stop-color="#5AE2E2"/><stop offset="1" stop-color="#9F85EC"/></linearGradient><linearGradient id="i" x1="41.457" y1="48.721" x2="57.204" y2="18.306" gradientUnits="userSpaceOnUse"><stop stop-color="#5AE2E2"/><stop offset="1" stop-color="#9F85EC"/></linearGradient><linearGradient id="j" x1="29.102" y1="28.581" x2="49.479" y2="28.581" gradientUnits="userSpaceOnUse"><stop stop-color="#5AE2E2"/><stop offset="1" stop-color="#9F85EC"/></linearGradient><linearGradient id="k" x1="29.691" y1="40.426" x2="43.972" y2="14.971" gradientUnits="userSpaceOnUse"><stop stop-color="#5AE2E2"/><stop offset="1" stop-color="#9F85EC"/></linearGradient><clipPath id="a"><path fill="#fff" d="M0 0h65v52H0z"/></clipPath></defs></svg>