<svg width="18" height="18" viewBox="0 0 18 18" fill="none" xmlns="http://www.w3.org/2000/svg"><path d="M9 17.5a8.5 8.5 0 1 0 0-17 8.5 8.5 0 0 0 0 17Z" fill="#BDBDBD" stroke="#E0E0E0"/><path d="M8.4 14.1c-2.5-.3-4.5-2.4-4.5-4.9 0-1.5.7-3 1.8-3.9l.4 1.1 2.2-2.7-3.4-.6.5 1.2c-1.5 1.1-2.5 3-2.5 4.9 0 3 2.4 5.6 5.4 5.9h.1c.3 0 .5-.2.5-.4 0-.3-.2-.6-.5-.6ZM15.1 8.9c0-3-2.4-5.6-5.4-5.9-.3 0-.5.2-.5.5-.1.3.1.5.4.5 2.5.3 4.5 2.4 4.5 4.9 0 1.5-.7 3-1.8 3.9l-.4-1.1-2.2 2.7 3.5.5-.5-1.2c1.5-1 2.4-2.9 2.4-4.8Z" fill="#fff"/><path d="m8.9 6.5-.2 1.1h1l.2-1.1c0-.2.2-.4.5-.3.2 0 .4.2.3.4l-.2 1h.4c.3 0 .4.2.4.4s-.1.4-.4.4h-.5l-.2 1.1h.4c.3 0 .4.2.4.4s-.1.4-.4.4h-.5l-.1 1.3c0 .2-.2.4-.5.3-.2 0-.4-.2-.3-.4l.2-1.1h-1l-.2 1.2c0 .2-.2.4-.5.3-.2 0-.4-.2-.3-.4l.2-1.1h-.5c-.3 0-.4-.2-.4-.4s.1-.4.4-.4h.5l.2-1.1h-.4C7.1 8.4 7 8.2 7 8s.1-.4.4-.4h.5l.2-1.1c0-.2.2-.4.5-.3.1-.1.3.1.3.3Zm-.5 3h1l.2-1.1h-1l-.2 1.1Z" fill="#fff"/></svg>