<svg xmlns="http://www.w3.org/2000/svg" viewBox="0 0 512 512"><path d="M250.527 319.583c9.69-9.69 9.69-25.405-.004-35.086l-51.519-51.511 33.975-33.975 51.514 51.514c9.69 9.69 25.401 9.69 35.091 0 9.69-9.69 9.69-25.401 0-35.091L268.07 163.92l11.229-11.229c9.69-9.69 9.69-25.401 0-35.091-7.8-7.8-19.499-9.316-28.821-4.559l-81.471-62.748c-12.396-10.706-29.909-12.53-44.241-5.642L77.075 7.557c-3.397-2.642-8.23-2.341-11.273.702L54.578 19.483 37.589 2.5c-3.332-3.331-8.733-3.331-12.066 0L2.5 25.515c-3.334 3.332-3.334 8.736-.001 12.069l16.989 16.989L8.253 65.808c-3.043 3.043-3.344 7.876-.701 11.273l37.1 47.693c-6.878 14.34-5.003 31.914 5.935 44.595l62.457 81.103c-4.761 9.323-3.246 21.025 4.556 28.827 9.69 9.69 25.401 9.69 35.091 0l11.231-11.231 51.515 51.515c9.689 9.69 25.4 9.69 35.09 0zm56.99-92.081c3.025 3.025 3.025 7.93 0 10.955s-7.93 3.025-10.955 0l-51.514-51.514 10.955-10.955 51.514 51.514zm-155.112-18.105l-24.226-24.219c-11.737-11.743-11.737-30.773.001-42.51l14.481-14.481c11.739-11.745 30.773-11.745 42.51-.002l24.228 24.221-45.89 45.89-11.104 11.101zM20.602 31.551l10.954-10.95 10.954 10.95-10.954 10.954-10.954-10.954zM37.59 60.607l23.023-23.023 11.93-11.93 12.323 9.584-13.304 13.303c-3.332 3.333-3.332 8.735 0 12.068 3.332 3.332 8.735 3.332 12.068 0l14.813-14.813 12.317 9.58-27.806 27.81-27.58 27.577-9.583-12.319 14.817-14.817c3.333-3.333 3.333-8.735 0-12.068-3.332-3.332-8.735-3.332-12.068 0l-13.31 13.31-9.583-12.319L37.59 60.607zm27.129 64.954l30.418-30.422 30.506-30.503c8.903-8.81 23.089-9.311 32.584-1.122l79.115 60.948-15.875 15.875-24.227-24.221c-18.4-18.411-48.245-18.411-66.648.003l-14.48 14.481c-18.402 18.402-18.402 48.235-.002 66.645l24.228 24.221-15.871 15.871-60.659-78.748c-8.513-9.891-7.985-24.138.911-33.028zm75.903 141.67c-3.025 3.025-7.93 3.025-10.955 0-3.025-3.025-3.025-7.93 0-10.955l56.399-56.399 41.441-41.431c.034-.034.063-.072.097-.107l28.673-28.673c3.025-3.025 7.93-3.025 10.955 0 3.025 3.025 3.025 7.93 0 10.955l-17.255 17.255c-.003.003-.006.005-.009.008l-23.023 23.023c-.003.003-.005.006-.008.009l-46.035 46.035-23.014 23.014-17.266 17.266zm46.314-22.177l51.523 51.516c3.024 3.02 3.024 7.922 0 10.946-3.025 3.025-7.93 3.025-10.955 0L175.989 256l10.947-10.946zM509.501 474.416l-16.989-16.989 11.235-11.235c3.043-3.043 3.344-7.876.701-11.273l-37.1-47.693c6.878-14.34 5.003-31.914-5.935-44.595l-62.456-81.102c4.76-9.323 3.245-21.025-4.556-28.826-9.69-9.69-25.401-9.69-35.091 0L232.701 359.311c-9.69 9.69-9.69 25.401 0 35.091 7.8 7.8 19.499 9.316 28.821 4.559l81.47 62.748c12.396 10.706 29.909 12.53 44.241 5.642l47.692 37.093c3.397 2.642 8.23 2.341 11.273-.702l11.224-11.224 16.989 16.983c3.332 3.331 8.734 3.331 12.066 0l23.023-23.014c3.333-3.334 3.334-8.738.001-12.071zM359.593 302.602l24.394 24.394c11.643 11.644 11.643 30.526 0 42.17l-14.814 14.814c-11.652 11.652-30.533 11.652-42.177.002l-24.395-24.388 56.992-56.992zm-114.825 79.732c-3.025-3.025-3.025-7.93 0-10.955l126.61-126.609c3.025-3.025 7.93-3.025 10.955 0 3.025 3.025 3.025 7.93 0 10.955l-28.757 28.757c-.006.006-.013.011-.019.017l-69.06 69.06c-.006.006-.011.012-.016.018l-28.757 28.757c-3.025 3.025-7.931 3.025-10.956 0zm109.005 66.152l-79.115-60.948 15.876-15.876 24.394 24.387c18.306 18.316 47.996 18.316 66.314-.001l14.814-14.814c18.308-18.308 18.308-47.997 0-66.306l-24.394-24.394 15.871-15.871 60.659 78.748c8.514 9.891 7.986 24.138-.91 33.027l-30.534 30.538-30.389 30.385c-8.904 8.813-23.091 9.314-32.586 1.125zm85.683 37.86l-12.323-9.584 13.304-13.304c3.332-3.333 3.332-8.735 0-12.068-3.333-3.332-8.735-3.332-12.068 0l-14.813 14.813-12.317-9.58 27.458-27.462 27.927-27.924 9.583 12.319-14.817 14.817c-3.332 3.333-3.332 8.735 0 12.068 3.332 3.332 8.735 3.332 12.068 0l13.31-13.31 9.583 12.319-46.895 46.896zm40.988 5.053l-10.954-10.95 10.954-10.954 10.954 10.954-10.954 10.95z"/></svg>